<svg width="85" height="102" viewBox="0 0 85 102" fill="none" xmlns="http://www.w3.org/2000/svg">
<path d="M71.8455 25.3376C71.8455 39.3311 58.4807 50.6752 41.9943 50.6752C25.5079 50.6752 12.1431 39.3311 12.1431 25.3376C12.1431 11.344 25.5079 0 41.9943 0C58.4807 0 71.8455 11.344 71.8455 25.3376Z" fill="#313141"/>
<path d="M85 101.223C85 95.08 83.9007 88.9973 81.7649 83.3221C79.6291 77.6468 76.4985 72.4901 72.552 68.1465C68.6056 63.8028 63.9204 60.3573 58.764 58.0065C53.6077 55.6557 48.0812 54.4458 42.5 54.4458C36.9188 54.4458 31.3923 55.6557 26.236 58.0065C21.0796 60.3573 16.3944 63.8028 12.448 68.1465C8.50147 72.4901 5.37094 77.6468 3.23512 83.3221C1.09929 88.9973 -4.87922e-07 95.08 0 101.223L85 101.223Z" fill="#313141"/>
</svg>
