<svg width="106" height="108" viewBox="0 0 106 108" fill="none" xmlns="http://www.w3.org/2000/svg">
<path d="M106 55.2249C106 51.5432 105.699 47.8751 105.069 44.2451H54.0674V65.0379H83.2751C82.0678 71.7462 78.1705 77.6806 72.4768 81.4413V94.9496H89.9139C100.122 85.5684 106 71.6673 106 55.2249Z" fill="#4285F4"/>
<path d="M54.0675 108.001C68.6587 108.001 80.9531 103.218 89.9141 94.9641L72.4769 81.4558C67.622 84.7446 61.3763 86.6181 54.0675 86.6181C39.963 86.6181 27.9963 77.12 23.706 64.332H5.75684V78.2459C14.9411 96.4974 33.6256 108.001 54.0675 108.001Z" fill="#34A853"/>
<path d="M23.7192 64.3319C21.4496 57.6372 21.4496 50.3654 23.7192 43.658V29.7568H5.75731C-1.9191 45.0198 -1.9191 62.9955 5.75731 78.2593L23.7192 64.3319Z" fill="#FBBC04"/>
<path d="M54.0675 21.3846C61.783 21.2666 69.2225 24.1626 74.8118 29.4819L90.2554 14.0738C80.4674 4.90316 67.504 -0.141245 54.0675 0.00301081C33.6256 0.00301081 14.9284 11.519 5.75684 29.7568L23.7187 43.6707C27.9963 30.8701 39.963 21.3846 54.0675 21.3846Z" fill="#EA4335"/>
</svg>
